HIERARCHY
ROOT pelvis
{
  OFFSET 0 100 0
  CHANNELS 6 Xposition Yposition Zposition Zrotation Xrotation Yrotation
  JOINT pelvis_right_femur
  {
    OFFSET -10.78128 -3.44521 -0.5502486
    CHANNELS 3 Zrotation Xrotation Yrotation
    JOINT right_femur_tibia
    {
      OFFSET -0.8047443 -44.0398 -0.1307829
      CHANNELS 3 Zrotation Xrotation Yrotation
      JOINT right_tibia_foot
      {
        OFFSET 3.006224 -47.83518 -5
        CHANNELS 3 Zrotation Xrotation Yrotation
        End Site
        {
          OFFSET 0 -5 15
        }
      }
    }
  }
  JOINT pelvis_left_femur
  {
    OFFSET 10.78128 -3.44521 -0.5502486
    CHANNELS 3 Zrotation Xrotation Yrotation
    JOINT left_femur_tibia
    {
      OFFSET 0.8047443 -44.0398 -0.1307829
      CHANNELS 3 Zrotation Xrotation Yrotation
      JOINT left_tibia_foot
      {
        OFFSET -4.370144 -48.10324 -4.275266
        CHANNELS 3 Zrotation Xrotation Yrotation
        End Site
        {
          OFFSET 0 -5 15
        }
      }
    }
  }
  JOINT pelvis_spine1
  {
    OFFSET 0 6.468898 -3.129235
    CHANNELS 3 Zrotation Xrotation Yrotation
    JOINT spine1
    {
      OFFSET 0 23.15396 4.99043
      CHANNELS 3 Zrotation Xrotation Yrotation
      JOINT spine2
      {
        OFFSET 0 20.79997 -5.064912
        CHANNELS 3 Zrotation Xrotation Yrotation
        JOINT neck
        {
          OFFSET 0 14.38658 9.616178
          CHANNELS 3 Zrotation Xrotation Yrotation
          End Site
          {
            OFFSET 0 20 0
          }
        }
      }
      JOINT right_manubrium
      {
        OFFSET -5.722621 16.35077 3.967754
        CHANNELS 3 Zrotation Xrotation Yrotation
        JOINT right_clavicle
        {
          OFFSET -13.16364 1.694482 -4.693211
          CHANNELS 3 Zrotation Xrotation Yrotation
          JOINT right_humerus
          {
            OFFSET -28.5034 -0.3100689 -2.792744
            CHANNELS 3 Zrotation Xrotation Yrotation
            JOINT right_radius
            {
              OFFSET -25.15693 0.02248979 -1.271978
              CHANNELS 3 Zrotation Xrotation Yrotation
              End Site
              {
                OFFSET -15 0 0
              }
            }
          }
        }
      }
      JOINT left_manubrium
      {
        OFFSET 5.722621 16.35077 3.967754
        CHANNELS 3 Zrotation Xrotation Yrotation
        JOINT left_clavicle
        {
          OFFSET 13.16364 1.694482 -4.693211
          CHANNELS 3 Zrotation Xrotation Yrotation
          JOINT left_humerus
          {
            OFFSET 29.39168 -1.063119 -2.237045
            CHANNELS 3 Zrotation Xrotation Yrotation
            JOINT left_radius
            {
              OFFSET 24.59957 -0.9528479 0.9047498
              CHANNELS 3 Zrotation Xrotation Yrotation
              End Site
              {
                OFFSET 15 -0 -0
              }
            }
          }
        }
      }
    }
  }
}
MOTION
Frames: 10
Frame Time: 0.0416666666667
40.97132 104.7199 242.1981 2.044667 -7.336809 6.651507 1.215765 11.13763 7.357035 -3.021207e-06 36.67822 -1.164373e-06 2.199683 -10.41918 -5.322888 -2.063615 -14.74008 -7.95223 -6.760746e-06 19.129 -1.266243e-05 -7.694908 -9.926053 18.89442 -1.546742 -0.01764455 7.277019 -1.332882 9.865676 -4.035407 2.35904 21.6352 4.736428 2.266109 -16.19907 6.494621 2.549941 -21.05753 10.67521 83.08797 24.9896 -8.337918 -3.667445e-07 3.879376e-07 24.57163 -21.69972 12.01174 12.72973 4.277257 -15.41778 -3.001826 -94.55775 26.69907 25.71209 -1.535107e-06 -1.864814e-06 -10.48018 -5.345557 5.969389 20.59687
42.54058 105.2324 248.1047 2.319877 -7.786939 7.045956 0.7275922 8.999039 7.343649 -9.561153e-07 43.51958 -1.789137e-06 2.042192 -8.617191 -5.833561 -3.098613 -11.56561 -8.958734 -5.420135e-06 20.31331 -1.092874e-05 -7.340075 -10.38844 18.6166 -1.798286 -0.05415252 6.776741 -1.429571 9.858711 -4.17819 2.369011 21.93486 4.907533 2.287805 -16.05934 6.710012 2.801762 -20.21079 10.55819 83.71938 25.09262 -9.314036 -3.169563e-07 2.253041e-07 23.11326 -21.16017 11.71954 12.0508 4.020608 -15.41364 -3.233304 -93.54395 27.31872 24.38167 -1.277991e-06 -2.01016e-06 -10.5185 -5.124155 6.188404 20.43316
44.0626 106.063 253.6945 2.714736 -8.277637 7.681836 0.1975616 5.654334 7.287108 1.787079e-06 50.06661 -2.858099e-06 1.984046 -7.385983 -6.528555 -4.182506 -7.442441 -10.09634 -3.959974e-06 20.55294 -7.858455e-06 -6.687438 -11.41526 18.40134 -2.122382 -0.0995105 6.193127 -1.482535 9.846816 -4.481944 2.377044 22.2937 5.067495 2.239177 -15.81759 6.976362 3.030467 -19.3168 10.42363 84.64775 25.15537 -10.75586 -1.827233e-07 -2.904235e-08 21.54141 -20.46549 11.46561 11.15614 3.861847 -15.64308 -3.53914 -92.16143 28.01102 22.38484 -1.039534e-06 -2.078481e-06 -11.26897 -4.787051 6.560494 20.08205
45.4968 107.0628 258.9094 3.035322 -8.571414 8.473686 -0.08362256 1.358571 7.12952 4.702887e-06 54.22347 -4.165767e-06 1.746757 -7.164582 -7.24219 -5.008379 -2.78158 -11.17765 -2.340741e-06 20.26713 -3.845089e-06 -5.948627 -12.67359 18.11309 -2.3612 -0.1441764 5.537206 -1.396736 9.717695 -4.917439 2.400205 22.59679 5.140029 2.090181 -15.59485 7.257102 3.144872 -18.40868 10.22822 85.55751 25.18183 -12.45906 -1.504429e-08 -2.80537e-07 19.90197 -19.38429 11.2657 10.00735 3.820161 -16.04278 -3.802818 -90.41903 28.68443 19.9085 -8.325008e-07 -2.065322e-06 -12.60269 -4.280288 7.159024 19.41585
46.86957 108.0324 263.969 3.186623 -8.558244 9.34953 -0.1165132 -3.218863 6.752377 6.655095e-06 55.15129 -4.943662e-06 1.553633 -7.183769 -7.904737 -5.424185 1.791933 -11.84391 -8.716129e-07 18.87912 2.240913e-08 -5.598451 -14.15354 17.62253 -2.458725 -0.1521735 4.872045 -1.209995 9.48179 -5.402913 2.452276 22.79157 5.177501 1.936655 -15.50323 7.521926 3.070516 -17.64289 9.994132 86.68661 25.03966 -14.16489 4.828174e-08 -4.724597e-07 18.46401 -18.54054 11.19024 9.11358 4.013092 -16.58552 -4.002688 -88.95829 29.11947 17.44082 -6.57833e-07 -2.001421e-06 -14.32367 -3.787207 7.676147 18.75075
48.14236 108.6999 268.7751 3.326921 -8.345692 10.22319 -0.0006002049 -7.811245 6.314255 6.913817e-06 52.50268 -4.379375e-06 1.293042 -7.76893 -8.36507 -5.664613 5.745271 -12.3962 5.139994e-07 16.79497 3.468469e-06 -4.988963 -15.88724 17.5784 -2.58165 -0.121223 4.318702 -0.917318 9.214972 -5.852368 2.483686 22.88302 5.219115 1.838876 -15.42375 7.717358 2.897335 -16.96678 9.790003 87.18746 24.89258 -15.66688 2.291035e-07 -6.620176e-07 17.03635 -17.66713 10.96576 8.236639 4.454912 -17.27513 -4.128113 -87.22343 29.28871 14.7376 -6.081685e-07 -1.681695e-06 -16.40341 -3.107464 8.36206 17.7229
49.32996 108.9369 273.5632 3.284306 -7.895252 11.00559 0.3021437 -12.24442 5.706266 6.124969e-06 46.82079 -3.153721e-06 1.040916 -8.361562 -8.729392 -5.610543 9.245123 -12.52534 1.818825e-06 14.60637 6.379293e-06 -4.924575 -17.61352 17.34298 -2.578001 0.001406487 3.788067 -0.5552554 8.814436 -6.259847 2.544054 22.92452 5.256649 1.795384 -15.42891 7.872763 2.583263 -16.28753 9.551575 87.72944 24.66547 -17.04226 3.50136e-07 -7.664864e-07 15.61492 -17.06387 10.77239 7.615988 5.106428 -18.02551 -4.151634 -85.77572 29.28901 12.02239 -6.061934e-07 -1.305055e-06 -18.69455 -2.471197 8.881892 16.74962
50.44915 108.6984 278.5202 3.110792 -7.322279 11.66965 0.7017798 -16.24857 5.006012 5.055076e-06 39.42194 -1.915733e-06 0.7799045 -8.784215 -8.996286 -5.395518 12.17799 -12.3175 2.980985e-06 12.99717 8.697393e-06 -5.357298 -19.15201 16.92299 -2.482246 0.2015987 3.305984 -0.1730644 8.343615 -6.599329 2.617379 22.97367 5.3135 1.823318 -15.50189 7.987763 2.213623 -15.57789 9.316724 88.347 24.43807 -18.29465 4.344817e-07 -7.963059e-07 14.15229 -16.72134 10.59564 7.216162 5.862719 -18.79016 -4.100128 -84.67429 29.2001 9.418812 -6.343841e-07 -9.118591e-07 -21.02527 -1.901318 9.225871 15.89347
51.4512 107.9744 283.5141 2.981283 -6.797451 12.21322 1.044056 -19.9004 4.330719 4.284604e-06 31.83093 -8.652337e-07 0.3403243 -9.430729 -9.124703 -5.24317 14.60761 -12.15928 4.119419e-06 12.12571 1.110137e-05 -5.563645 -20.52132 16.72615 -2.437089 0.4189993 2.899943 0.2007376 7.894438 -6.875028 2.654339 23.08205 5.393609 1.885954 -15.53957 8.066181 1.889043 -14.82287 9.127093 88.63934 24.35666 -19.44788 6.279964e-07 -8.494712e-07 12.53517 -16.26811 10.27256 6.715751 6.59041 -19.56647 -4.02911 -83.39813 29.07082 6.73228 -6.737602e-07 -4.295856e-07 -23.3469 -1.195616 9.685051 14.84414
52.34323 106.928 288.5849 2.754863 -6.275884 12.63563 1.383476 -22.81048 3.656805 4.03124e-06 25.32576 -2.076072e-07 -0.3808719 -10.01821 -9.098637 -5.05731 16.51018 -11.96173 5.13493e-06 12.44736 1.350042e-05 -5.941231 -21.29893 16.26441 -2.312075 0.6163639 2.514631 0.5338965 7.427961 -7.077911 2.670432 23.23107 5.459958 1.938876 -15.66285 8.127581 1.610577 -14.06177 8.944401 88.90253 24.42144 -20.42415 7.734743e-07 -8.498522e-07 10.90704 -15.7163 9.946302 6.212494 7.121775 -20.19428 -3.923522 -82.29744 29.0117 4.45698 -6.38201e-07 -6.201679e-08 -25.23104 -0.4828119 10.13856 13.84177
